<?xml version="1.0" encoding="utf-8"?>
<!-- Generator: Adobe Illustrator 15.1.0, SVG Export Plug-In . SVG Version: 6.00 Build 0)  -->
<!DOCTYPE svg PUBLIC "-//W3C//DTD SVG 1.1//EN" "http://www.w3.org/Graphics/SVG/1.1/DTD/svg11.dtd">
<svg version="1.1" id="Calque_1" xmlns="http://www.w3.org/2000/svg" xmlns:xlink="http://www.w3.org/1999/xlink" x="0px" y="0px"
	 width="28.638px" height="25.455px" viewBox="0 0 28.638 25.455" enable-background="new 0 0 28.638 25.455" xml:space="preserve">
<polygon id="IcoSponsors" fill="#FFFFFF" points="25.455,3.18 25.455,0 22.273,0 19.091,0 19.091,3.18 15.909,3.18 15.909,6.362 
	12.728,6.362 12.728,3.18 9.546,3.18 9.546,0 6.365,0 3.183,0 3.183,3.18 0,3.18 0,6.362 0,9.545 0,12.726 3.183,12.726 
	3.183,15.908 6.365,15.908 6.365,19.092 9.546,19.092 9.546,22.272 12.728,22.272 12.728,25.455 15.909,25.455 15.909,22.272 
	19.091,22.272 19.091,19.092 22.273,19.092 22.273,15.908 25.455,15.908 25.455,12.726 28.638,12.726 28.638,9.545 28.638,6.362 
	28.638,3.18 "/>
</svg>
