<?xml version="1.0" encoding="UTF-8" standalone="no"?>
<!-- Created with Inkscape (http://www.inkscape.org/) -->

<svg
   xmlns:dc="http://purl.org/dc/elements/1.1/"
   xmlns:cc="http://creativecommons.org/ns#"
   xmlns:rdf="http://www.w3.org/1999/02/22-rdf-syntax-ns#"
   xmlns:svg="http://www.w3.org/2000/svg"
   xmlns="http://www.w3.org/2000/svg"
   xmlns:sodipodi="http://sodipodi.sourceforge.net/DTD/sodipodi-0.dtd"
   xmlns:inkscape="http://www.inkscape.org/namespaces/inkscape"
   width="210mm"
   height="297mm"
   id="svg3124"
   version="1.1"
   inkscape:version="0.48.1 r9760"
   sodipodi:docname="logo.svg">
  <defs
     id="defs3126" />
  <sodipodi:namedview
     id="base"
     pagecolor="#ffffff"
     bordercolor="#666666"
     borderopacity="1.0"
     inkscape:pageopacity="0.0"
     inkscape:pageshadow="2"
     inkscape:zoom="2.8"
     inkscape:cx="319.08629"
     inkscape:cy="557.23404"
     inkscape:document-units="px"
     inkscape:current-layer="layer1"
     showgrid="false"
     inkscape:window-width="1005"
     inkscape:window-height="767"
     inkscape:window-x="0"
     inkscape:window-y="25"
     inkscape:window-maximized="0" />
  <metadata
     id="metadata3129">
    <rdf:RDF>
      <cc:Work
         rdf:about="">
        <dc:format>image/svg+xml</dc:format>
        <dc:type
           rdf:resource="http://purl.org/dc/dcmitype/StillImage" />
        <dc:title />
      </cc:Work>
    </rdf:RDF>
  </metadata>
  <g
     inkscape:label="Calque 1"
     inkscape:groupmode="layer"
     id="layer1">
    <path
       d="m 374.1267,442.71099 57.85373,0 -10.82761,121.48053 -48.8563,13.73258"
       id="path6-0"
       inkscape:connector-curvature="0"
       style="fill:#5b5b5b;fill-opacity:1"
       sodipodi:nodetypes="cccc" />
    <path
       d="m 321.70431,562.56652 -10.82761,-121.48053 119.10373,0 -10.82761,121.48053 -48.8563,13.73258"
       id="path6"
       inkscape:connector-curvature="0"
       style="fill:#e34f26" />
    <path
       d="m 370.56061,565.73557 39.34913,-10.82761 9.24308,-104.05071 -48.59221,0"
       id="path8"
       inkscape:connector-curvature="0"
       style="fill:#f0733d;fill-opacity:1" />
    <g
       id="g4142"
       transform="matrix(1.0122463,0,0,0.92362317,-465.33648,403.23086)">
      <g
         transform="matrix(0.96158604,-0.35269472,0.19890961,1.0604357,-10.775146,296.1239)"
         id="g3907">
        <path
           transform="matrix(0.8515625,0,0,0.8984375,123.48213,10.689283)"
           style="color:#000000;fill:#ffffff;fill-opacity:1;fill-rule:nonzero;stroke:none;stroke-width:3;marker:none;visibility:visible;display:inline;overflow:visible;enable-background:accumulate"
           d="m 834.28569,144.80876 c 0,6.31183 -5.11675,11.42857 -11.42857,11.42857 -6.31183,0 -11.42858,-5.11674 -11.42858,-11.42857 0,-6.31182 5.11675,-11.42857 11.42858,-11.42857 6.31182,0 11.42857,5.11675 11.42857,11.42857 z"
           id="path3831" />
        <path
           transform="matrix(0.8671875,0,0,0.90625,128.48216,2.3258275)"
           style="color:#000000;fill:#ffffff;fill-opacity:1;fill-rule:nonzero;stroke:none;stroke-width:3;marker:none;visibility:visible;display:inline;overflow:visible;enable-background:accumulate"
           d="m 834.28569,144.80876 c 0,6.31183 -5.11675,11.42857 -11.42857,11.42857 -6.31183,0 -11.42858,-5.11674 -11.42858,-11.42857 0,-6.31182 5.11675,-11.42857 11.42858,-11.42857 6.31182,0 11.42857,5.11675 11.42857,11.42857 z"
           id="path3831-0" />
        <path
           transform="matrix(0.8125,0,0,0.765625,156.9643,11.439559)"
           style="color:#000000;fill:#ffffff;fill-opacity:1;fill-rule:nonzero;stroke:none;stroke-width:3;marker:none;visibility:visible;display:inline;overflow:visible;enable-background:accumulate"
           d="m 834.28569,144.80876 c 0,6.31183 -5.11675,11.42857 -11.42857,11.42857 -6.31183,0 -11.42858,-5.11674 -11.42858,-11.42857 0,-6.31182 5.11675,-11.42857 11.42858,-11.42857 6.31182,0 11.42857,5.11675 11.42857,11.42857 z"
           id="path3831-00" />
        <path
           transform="matrix(1,0,0,0.90625,23.03574,-18.567029)"
           style="color:#000000;fill:#ffffff;fill-opacity:1;fill-rule:nonzero;stroke:none;stroke-width:3;marker:none;visibility:visible;display:inline;overflow:visible;enable-background:accumulate"
           d="m 834.28569,144.80876 c 0,6.31183 -5.11675,11.42857 -11.42857,11.42857 -6.31183,0 -11.42858,-5.11674 -11.42858,-11.42857 0,-6.31182 5.11675,-11.42857 11.42858,-11.42857 6.31182,0 11.42857,5.11675 11.42857,11.42857 z"
           id="path3831-9" />
        <path
           transform="matrix(0.90625,0,0,0.8671875,114.82145,-1.5711516)"
           style="color:#000000;fill:#ffffff;fill-opacity:1;fill-rule:nonzero;stroke:none;stroke-width:3;marker:none;visibility:visible;display:inline;overflow:visible;enable-background:accumulate"
           d="m 834.28569,144.80876 c 0,6.31183 -5.11675,11.42857 -11.42857,11.42857 -6.31183,0 -11.42858,-5.11674 -11.42858,-11.42857 0,-6.31182 5.11675,-11.42857 11.42858,-11.42857 6.31182,0 11.42857,5.11675 11.42857,11.42857 z"
           id="path3831-8" />
        <path
           transform="matrix(0.9453125,0,0,0.859375,48.660739,-20.886262)"
           style="color:#000000;fill:#ffffff;fill-opacity:1;fill-rule:nonzero;stroke:none;stroke-width:3;marker:none;visibility:visible;display:inline;overflow:visible;enable-background:accumulate"
           d="m 834.28569,144.80876 c 0,6.31183 -5.11675,11.42857 -11.42857,11.42857 -6.31183,0 -11.42858,-5.11674 -11.42858,-11.42857 0,-6.31182 5.11675,-11.42857 11.42858,-11.42857 6.31182,0 11.42857,5.11675 11.42857,11.42857 z"
           id="path3831-09" />
        <path
           transform="matrix(0.984375,0,0,0.984375,39.285739,-50.5945)"
           style="color:#000000;fill:#ffffff;fill-opacity:1;fill-rule:nonzero;stroke:none;stroke-width:3;marker:none;visibility:visible;display:inline;overflow:visible;enable-background:accumulate"
           d="m 834.28569,144.80876 c 0,6.31183 -5.11675,11.42857 -11.42857,11.42857 -6.31183,0 -11.42858,-5.11674 -11.42858,-11.42857 0,-6.31182 5.11675,-11.42857 11.42858,-11.42857 6.31182,0 11.42857,5.11675 11.42857,11.42857 z"
           id="path3831-6" />
        <path
           transform="matrix(0.9296875,0,0,0.9296875,100.62502,-31.514556)"
           style="color:#000000;fill:#ffffff;fill-opacity:1;fill-rule:nonzero;stroke:none;stroke-width:3;marker:none;visibility:visible;display:inline;overflow:visible;enable-background:accumulate"
           d="m 834.28569,144.80876 c 0,6.31183 -5.11675,11.42857 -11.42857,11.42857 -6.31183,0 -11.42858,-5.11674 -11.42858,-11.42857 0,-6.31182 5.11675,-11.42857 11.42858,-11.42857 6.31182,0 11.42857,5.11675 11.42857,11.42857 z"
           id="path3831-7" />
        <path
           transform="matrix(0.7109375,0,0,0.7109375,292.41072,14.09093)"
           style="color:#000000;fill:#ffffff;fill-opacity:1;fill-rule:nonzero;stroke:none;stroke-width:3;marker:none;visibility:visible;display:inline;overflow:visible;enable-background:accumulate"
           d="m 834.28569,144.80876 c 0,6.31183 -5.11675,11.42857 -11.42857,11.42857 -6.31183,0 -11.42858,-5.11674 -11.42858,-11.42857 0,-6.31182 5.11675,-11.42857 11.42858,-11.42857 6.31182,0 11.42857,5.11675 11.42857,11.42857 z"
           id="path3831-2" />
        <path
           transform="matrix(0.890625,0,0,0.71875,98.928593,-19.27253)"
           style="color:#000000;fill:#ffffff;fill-opacity:1;fill-rule:nonzero;stroke:none;stroke-width:3;marker:none;visibility:visible;display:inline;overflow:visible;enable-background:accumulate"
           d="m 834.28569,144.80876 c 0,6.31183 -5.11675,11.42857 -11.42857,11.42857 -6.31183,0 -11.42858,-5.11674 -11.42858,-11.42857 0,-6.31182 5.11675,-11.42857 11.42858,-11.42857 6.31182,0 11.42857,5.11675 11.42857,11.42857 z"
           id="path3831-1" />
      </g>
      <path
         inkscape:connector-curvature="0"
         id="path3919"
         d="m 819.99971,53.928062 c 0,0 -2.52575,0.688841 -3.90342,2.296137 -1.37768,1.607296 -0.45923,4.592274 -0.45923,4.592274 0,0 9.18455,7.347638 20.43561,11.021457 11.25108,3.67382 23.87983,4.821888 23.87983,4.821888 l 3.44421,-6.888411 c 0,0 -13.77683,0.459227 -22.50215,-3.673819 -8.72531,-4.133046 -20.89485,-12.169526 -20.89485,-12.169526 z"
         style="color:#000000;fill:#ffffff;fill-opacity:1;fill-rule:nonzero;stroke:none;stroke-width:3.13188291;marker:none;visibility:visible;display:inline;overflow:visible;enable-background:accumulate" />
      <path
         inkscape:connector-curvature="0"
         id="path3919-3"
         d="m 840.15035,67.423535 c 0,0 -0.97053,-1.456454 -2.28105,-1.990674 -1.31051,-0.534229 -3.00972,0.678956 -3.00972,0.678956 0,0 -2.71987,7.377794 -2.67296,15.290101 0.0469,7.912323 1.98687,16.164821 1.98687,16.164821 l 5.09674,0.729191 c 0,0 -3.20197,-8.64111 -2.42398,-15.048461 0.77799,-6.407344 3.3041,-15.823934 3.3041,-15.823934 z"
         style="color:#000000;fill:#ffffff;fill-opacity:1;fill-rule:nonzero;stroke:none;stroke-width:3.13188291;marker:none;visibility:visible;display:inline;overflow:visible;enable-background:accumulate" />
    </g>
  </g>
</svg>
