<?xml version="1.0" encoding="utf-8"?>
<!-- Generator: Adobe Illustrator 15.1.0, SVG Export Plug-In . SVG Version: 6.00 Build 0)  -->
<!DOCTYPE svg PUBLIC "-//W3C//DTD SVG 1.1//EN" "http://www.w3.org/Graphics/SVG/1.1/DTD/svg11.dtd">
<svg version="1.1" id="Calque_1" xmlns="http://www.w3.org/2000/svg" xmlns:xlink="http://www.w3.org/1999/xlink" x="0px" y="0px"
	 width="59.482px" height="73.276px" viewBox="0 0 59.482 73.276" enable-background="new 0 0 59.482 73.276" xml:space="preserve">
<path d="M34.482,10.218c-11.318,0-20.526,9.207-20.526,20.525c0,14.635,17.565,33.667,18.313,34.471
	c0.571,0.615,1.373,0.965,2.214,0.965c0.839,0,1.639-0.349,2.214-0.965c0.749-0.802,18.313-19.836,18.313-34.471
	C55.009,19.424,45.801,10.218,34.482,10.218z M26.38,30.097c0-4.477,3.628-8.104,8.103-8.104s8.101,3.627,8.101,8.104
	c0,4.475-3.626,8.102-8.101,8.102C30.009,38.198,26.38,34.569,26.38,30.097z"/>
</svg>
