<?xml version="1.0" encoding="utf-8"?>
<!-- Generator: Adobe Illustrator 15.1.0, SVG Export Plug-In . SVG Version: 6.00 Build 0)  -->
<!DOCTYPE svg PUBLIC "-//W3C//DTD SVG 1.1//EN" "http://www.w3.org/Graphics/SVG/1.1/DTD/svg11.dtd">
<svg version="1.1" id="Calque_1" xmlns="http://www.w3.org/2000/svg" xmlns:xlink="http://www.w3.org/1999/xlink" x="0px" y="0px"
	 width="18.673px" height="25.455px" viewBox="0 0 18.673 25.455" enable-background="new 0 0 18.673 25.455" xml:space="preserve">
<g id="IcoVenue">
	<path fill="#FFFFFF" d="M9.337,0C4.188,0,0,4.187,0,9.335c0,6.657,7.989,15.315,8.331,15.681c0.26,0.278,0.623,0.439,1.006,0.439
		c0.381,0,0.745-0.158,1.007-0.439c0.341-0.365,8.329-9.023,8.329-15.681C18.673,4.187,14.485,0,9.337,0z M5.651,9.041
		c0-2.037,1.651-3.687,3.686-3.687c2.035,0,3.686,1.649,3.686,3.687c0,2.036-1.65,3.686-3.686,3.686
		C7.303,12.727,5.651,11.075,5.651,9.041z"/>
</g>
</svg>
