<?xml version="1.0" encoding="utf-8"?>
<!-- Generator: Adobe Illustrator 15.1.0, SVG Export Plug-In . SVG Version: 6.00 Build 0)  -->
<!DOCTYPE svg PUBLIC "-//W3C//DTD SVG 1.1//EN" "http://www.w3.org/Graphics/SVG/1.1/DTD/svg11.dtd">
<svg version="1.1" id="Calque_1" xmlns="http://www.w3.org/2000/svg" xmlns:xlink="http://www.w3.org/1999/xlink" x="0px" y="0px"
	 width="17px" height="38.185px" viewBox="0 0 17 38.185" enable-background="new 0 0 17 38.185" xml:space="preserve">
<g id="IcoSchedule">
	<path fill="none" stroke="#000000" stroke-width="0.7351" stroke-miterlimit="10" d="M3.182,16.641V4.066
		c0-1.848,1.496-3.342,3.34-3.342h3.932c1.846,0,3.339,1.494,3.339,3.342V16.6L3.182,16.641z"/>
	<g>
		<rect x="8.488" y="21.362" fill="#FFFFFF" width="5.525" height="0.964"/>
	</g>
	<g>
		<rect x="8.488" y="23.531" fill="#FFFFFF" width="5.525" height="0.966"/>
	</g>
	<path fill="#FFFFFF" d="M16.182,15.698h-1.666V4.066C14.516,1.824,12.692,0,10.451,0h-3.93c-2.24,0-4.064,1.824-4.064,4.066v11.632
		H0.818C0.366,15.698,0,16.041,0,16.463c0,0.425,0.366,0.768,0.818,0.768H0.85c0.084,0.267,0.161,0.652,0.161,1.136v8.724
		c0,2.108,1.774,3.824,3.952,3.824h1.363v1.873h0.667v1.768h0.62l-0.053,2.656c-0.002,0.535,0.426,0.969,0.959,0.974
		c0.001,0,0.002,0,0.006,0c0.529,0,0.963-0.429,0.965-0.961l0.051-2.669h0.636v-1.769h0.667v-1.872h1.129
		c2.176,0,3.95-1.718,3.95-3.827v-8.721c0-0.515,0.071-0.887,0.145-1.136h0.11c0.455,0,0.822-0.343,0.822-0.768
		C17.004,16.041,16.633,15.698,16.182,15.698z M13.07,4.066v11.632H8.315V1.448h2.136C11.895,1.448,13.07,2.624,13.07,4.066z
		 M13.07,17.23v6.915c0,1.444-1.176,2.618-2.619,2.618H8.488L8.5,17.23H13.07z M4.096,12.921c-0.069,0-0.134-0.021-0.189-0.049
		v-0.724c0.056-0.027,0.12-0.049,0.189-0.049c0.227,0,0.41,0.185,0.41,0.412C4.506,12.734,4.322,12.921,4.096,12.921z M4.506,13.693
		c0,0.225-0.184,0.409-0.41,0.409c-0.069,0-0.134-0.018-0.189-0.049v-0.722c0.056-0.031,0.12-0.047,0.189-0.047
		C4.322,13.282,4.506,13.467,4.506,13.693z M4.096,11.738c-0.069,0-0.134-0.019-0.189-0.047v-0.724
		c0.056-0.031,0.12-0.048,0.189-0.048c0.227,0,0.41,0.184,0.41,0.411C4.506,11.556,4.322,11.738,4.096,11.738z M4.096,10.555
		c-0.069,0-0.134-0.016-0.189-0.045V9.785c0.056-0.029,0.12-0.049,0.189-0.049c0.227,0,0.41,0.182,0.41,0.41
		C4.506,10.376,4.322,10.555,4.096,10.555z M4.096,9.377c-0.069,0-0.134-0.02-0.189-0.051V8.604c0.056-0.031,0.12-0.048,0.189-0.048
		c0.227,0,0.41,0.183,0.41,0.409C4.506,9.191,4.322,9.377,4.096,9.377z M4.096,8.192c-0.069,0-0.134-0.019-0.189-0.048V7.424
		c0.056-0.032,0.12-0.05,0.189-0.05c0.227,0,0.41,0.183,0.41,0.408C4.506,8.011,4.322,8.192,4.096,8.192z M4.096,7.011
		c-0.069,0-0.134-0.019-0.189-0.049V6.239c0.056-0.029,0.12-0.05,0.189-0.05c0.227,0,0.41,0.185,0.41,0.412
		C4.506,6.83,4.322,7.011,4.096,7.011z M4.096,5.828c-0.069,0-0.134-0.018-0.189-0.049V5.057C3.962,5.028,4.026,5.01,4.096,5.01
		c0.227,0,0.41,0.183,0.41,0.411C4.506,5.646,4.322,5.828,4.096,5.828z M4.096,4.648c-0.069,0-0.134-0.019-0.189-0.049V4.066
		c0-0.066,0.001-0.129,0.008-0.194C3.969,3.845,4.03,3.828,4.096,3.828c0.228,0,0.41,0.185,0.41,0.409S4.322,4.648,4.096,4.648z
		 M3.906,14.513c0.056-0.031,0.12-0.046,0.189-0.046c0.227,0,0.41,0.182,0.41,0.408s-0.184,0.41-0.41,0.41
		c-0.069,0-0.134-0.018-0.189-0.049V14.513z M4.867,14.875c0-0.228,0.186-0.411,0.409-0.411c0.228,0,0.412,0.184,0.412,0.411
		c0,0.227-0.185,0.408-0.412,0.408C5.053,15.283,4.867,15.102,4.867,14.875z M5.276,12.921c-0.228,0-0.409-0.187-0.409-0.409
		c0-0.228,0.182-0.412,0.409-0.412c0.227,0,0.409,0.185,0.409,0.412C5.686,12.734,5.503,12.921,5.276,12.921z M5.686,13.693
		c0,0.225-0.183,0.409-0.409,0.409c-0.228,0-0.409-0.185-0.409-0.409c0-0.227,0.182-0.411,0.409-0.411
		C5.503,13.282,5.686,13.467,5.686,13.693z M5.276,11.738c-0.228,0-0.409-0.183-0.409-0.412c0-0.224,0.182-0.408,0.409-0.408
		c0.227,0,0.409,0.185,0.409,0.408C5.686,11.556,5.503,11.738,5.276,11.738z M5.276,10.555c-0.228,0-0.409-0.18-0.409-0.408
		s0.182-0.41,0.409-0.41c0.227,0,0.409,0.182,0.409,0.41S5.503,10.555,5.276,10.555z M5.276,9.377c-0.228,0-0.409-0.186-0.409-0.412
		s0.182-0.41,0.409-0.41c0.227,0,0.409,0.184,0.409,0.41S5.503,9.377,5.276,9.377z M5.276,8.192c-0.228,0-0.409-0.182-0.409-0.41
		c0-0.226,0.182-0.408,0.409-0.408c0.227,0,0.409,0.183,0.409,0.408C5.686,8.011,5.503,8.192,5.276,8.192z M5.276,7.011
		c-0.228,0-0.409-0.185-0.409-0.409c0-0.228,0.182-0.412,0.409-0.412c0.227,0,0.409,0.185,0.409,0.412
		C5.686,6.83,5.503,7.011,5.276,7.011z M5.276,5.828c-0.228,0-0.409-0.183-0.409-0.407c0-0.229,0.182-0.411,0.409-0.411
		c0.227,0,0.409,0.183,0.409,0.411C5.686,5.646,5.503,5.828,5.276,5.828z M5.276,4.648c-0.228,0-0.409-0.187-0.409-0.411
		s0.182-0.409,0.409-0.409c0.227,0,0.409,0.185,0.409,0.409S5.503,4.648,5.276,4.648z M5.276,3.468
		c-0.228,0-0.409-0.186-0.409-0.414c0-0.226,0.182-0.408,0.409-0.408c0.227,0,0.409,0.183,0.409,0.408
		C5.686,3.282,5.503,3.468,5.276,3.468z M6.049,14.875c0-0.228,0.185-0.411,0.41-0.411c0.229,0,0.412,0.184,0.412,0.411
		c0,0.227-0.184,0.408-0.412,0.408C6.233,15.283,6.049,15.102,6.049,14.875z M6.459,2.646c0.229,0,0.412,0.183,0.412,0.408
		c0,0.229-0.184,0.414-0.412,0.414c-0.226,0-0.41-0.186-0.41-0.414C6.049,2.828,6.233,2.646,6.459,2.646z M6.049,1.873
		c0-0.225,0.185-0.408,0.41-0.408c0.229,0,0.412,0.184,0.412,0.408c0,0.229-0.184,0.41-0.412,0.41
		C6.233,2.283,6.049,2.102,6.049,1.873z M6.459,3.828c0.229,0,0.412,0.185,0.412,0.409S6.688,4.648,6.459,4.648
		c-0.226,0-0.41-0.187-0.41-0.411S6.233,3.828,6.459,3.828z M6.459,5.01c0.229,0,0.412,0.183,0.412,0.411
		c0,0.225-0.184,0.407-0.412,0.407c-0.226,0-0.41-0.183-0.41-0.407C6.049,5.192,6.233,5.01,6.459,5.01z M6.459,6.189
		c0.229,0,0.412,0.185,0.412,0.412c0,0.229-0.184,0.409-0.412,0.409c-0.226,0-0.41-0.181-0.41-0.409
		C6.049,6.376,6.233,6.189,6.459,6.189z M6.459,7.374c0.229,0,0.412,0.183,0.412,0.408c0,0.229-0.184,0.41-0.412,0.41
		c-0.226,0-0.41-0.182-0.41-0.41C6.049,7.557,6.233,7.374,6.459,7.374z M6.459,8.557c0.229,0,0.412,0.183,0.412,0.409
		c0,0.226-0.184,0.411-0.412,0.411c-0.226,0-0.41-0.186-0.41-0.411C6.049,8.739,6.233,8.557,6.459,8.557z M6.459,9.736
		c0.229,0,0.412,0.182,0.412,0.41c0,0.229-0.184,0.411-0.412,0.411c-0.226,0-0.41-0.182-0.41-0.411
		C6.049,9.918,6.233,9.736,6.459,9.736z M6.459,10.918c0.229,0,0.412,0.185,0.412,0.408c0,0.229-0.184,0.412-0.412,0.412
		c-0.226,0-0.41-0.183-0.41-0.412C6.049,11.103,6.233,10.918,6.459,10.918z M6.459,12.1c0.229,0,0.412,0.185,0.412,0.412
		s-0.184,0.409-0.412,0.409c-0.226,0-0.41-0.182-0.41-0.409S6.233,12.1,6.459,12.1z M6.459,13.282c0.229,0,0.412,0.185,0.412,0.411
		c0,0.225-0.184,0.409-0.412,0.409c-0.226,0-0.41-0.185-0.41-0.409C6.049,13.467,6.233,13.282,6.459,13.282z M7.23,14.875
		c0-0.228,0.183-0.411,0.41-0.411c0.229,0,0.41,0.184,0.41,0.411c0,0.227-0.182,0.408-0.41,0.408
		C7.413,15.283,7.23,15.102,7.23,14.875z M7.641,3.828c0.229,0,0.41,0.185,0.41,0.409s-0.182,0.411-0.41,0.411
		c-0.228,0-0.41-0.187-0.41-0.411S7.413,3.828,7.641,3.828z M7.23,3.054c0-0.226,0.183-0.408,0.41-0.408
		c0.229,0,0.41,0.183,0.41,0.408c0,0.229-0.182,0.414-0.41,0.414C7.413,3.468,7.23,3.282,7.23,3.054z M7.641,5.01
		c0.229,0,0.41,0.183,0.41,0.411c0,0.225-0.182,0.407-0.41,0.407c-0.228,0-0.41-0.183-0.41-0.407C7.23,5.192,7.413,5.01,7.641,5.01z
		 M7.641,6.189c0.229,0,0.41,0.185,0.41,0.412c0,0.229-0.182,0.409-0.41,0.409c-0.228,0-0.41-0.181-0.41-0.409
		C7.23,6.376,7.413,6.189,7.641,6.189z M7.641,7.374c0.229,0,0.41,0.183,0.41,0.408c0,0.229-0.182,0.41-0.41,0.41
		c-0.228,0-0.41-0.182-0.41-0.41C7.23,7.557,7.413,7.374,7.641,7.374z M7.641,8.557c0.229,0,0.41,0.183,0.41,0.409
		c0,0.226-0.182,0.411-0.41,0.411c-0.228,0-0.41-0.186-0.41-0.411C7.23,8.739,7.413,8.557,7.641,8.557z M7.641,9.736
		c0.229,0,0.41,0.182,0.41,0.41c0,0.229-0.182,0.411-0.41,0.411c-0.228,0-0.41-0.182-0.41-0.411C7.23,9.918,7.413,9.736,7.641,9.736
		z M7.641,10.918c0.229,0,0.41,0.185,0.41,0.408c0,0.229-0.182,0.412-0.41,0.412c-0.228,0-0.41-0.183-0.41-0.412
		C7.23,11.103,7.413,10.918,7.641,10.918z M7.641,12.1c0.229,0,0.41,0.185,0.41,0.412s-0.182,0.409-0.41,0.409
		c-0.228,0-0.41-0.182-0.41-0.409S7.413,12.1,7.641,12.1z M7.641,13.282c0.229,0,0.41,0.185,0.41,0.411
		c0,0.225-0.182,0.409-0.41,0.409c-0.228,0-0.41-0.185-0.41-0.409C7.23,13.467,7.413,13.282,7.641,13.282z M7.641,2.283
		c-0.228,0-0.41-0.184-0.41-0.41c0-0.226,0.183-0.411,0.41-0.411c0.229,0,0.41,0.186,0.41,0.411C8.051,2.1,7.869,2.283,7.641,2.283z
		 M5.686,1.873c0,0.229-0.183,0.41-0.409,0.41c-0.173,0-0.323-0.107-0.383-0.266c0.21-0.166,0.448-0.301,0.702-0.398
		C5.65,1.69,5.686,1.775,5.686,1.873z M4.506,3.054c0,0.229-0.184,0.414-0.41,0.414c-0.042,0-0.078-0.01-0.116-0.021
		C4.045,3.182,4.15,2.928,4.293,2.699C4.42,2.769,4.506,2.902,4.506,3.054z M3.906,15.698v-0.003c0.056-0.03,0.12-0.049,0.189-0.049
		c0.07,0,0.136,0.019,0.195,0.052H3.906z M5.082,15.698c0.059-0.033,0.125-0.052,0.194-0.052c0.073,0,0.138,0.019,0.196,0.052H5.082
		z M6.262,15.698c0.061-0.033,0.125-0.052,0.197-0.052c0.07,0,0.137,0.019,0.197,0.052H6.262z M7.445,15.698
		c0.059-0.033,0.125-0.052,0.195-0.052c0.071,0,0.138,0.019,0.195,0.052H7.445z M2.955,21.362h5.526v0.964H2.955V21.362z
		 M2.955,23.531h5.526v0.966H2.955V23.531z M9.189,37.184c0,0.084-0.064,0.145-0.143,0.145c-0.08,0-0.145-0.061-0.145-0.145v-2.629
		h0.287V37.184L9.189,37.184z M9.768,33.877H8.756v-0.723h1.012V33.877z M10.177,32.189H8.662v-1.013h1.515V32.189z M14.958,18.366
		v8.724c0,1.576-1.337,2.859-2.983,2.859H4.963c-1.646,0-2.984-1.283-2.984-2.859v-8.724c0-0.444-0.058-0.826-0.132-1.136h0.61
		v6.915c0,2.241,1.824,4.065,4.064,4.065h3.93c2.241,0,4.064-1.824,4.064-4.065V17.23h0.561
		C15.006,17.531,14.958,17.905,14.958,18.366z"/>
</g>
</svg>
