<?xml version="1.0" encoding="utf-8"?>
<!-- Generator: Adobe Illustrator 15.1.0, SVG Export Plug-In . SVG Version: 6.00 Build 0)  -->
<!DOCTYPE svg PUBLIC "-//W3C//DTD SVG 1.1//EN" "http://www.w3.org/Graphics/SVG/1.1/DTD/svg11.dtd">
<svg version="1.1" id="Calque_1" xmlns="http://www.w3.org/2000/svg" xmlns:xlink="http://www.w3.org/1999/xlink" x="0px" y="0px"
	 width="37.931px" height="59.483px" viewBox="0 0 37.931 59.483" enable-background="new 0 0 37.931 59.483" xml:space="preserve">
<g id="IcoSchedule">
	<path fill="none" stroke="#000000" stroke-width="0.7351" stroke-miterlimit="10" d="M15.812,28.639V16.065
		c0-1.848,1.496-3.342,3.34-3.342h3.932c1.846,0,3.339,1.494,3.339,3.342v12.533L15.812,28.639z"/>
	<g>
		<rect x="21.118" y="33.361" fill="#FFFFFF" width="5.525" height="0.964"/>
	</g>
	<g>
		<rect x="21.118" y="35.53" fill="#FFFFFF" width="5.525" height="0.966"/>
	</g>
	<path fill="#FFFFFF" d="M28.812,27.697h-1.666V16.065c0-2.242-1.823-4.066-4.064-4.066h-3.93c-2.24,0-4.064,1.824-4.064,4.066
		v11.632h-1.639c-0.452,0-0.818,0.343-0.818,0.765c0,0.425,0.366,0.768,0.818,0.768h0.031c0.084,0.267,0.161,0.652,0.161,1.136
		v8.724c0,2.108,1.774,3.824,3.952,3.824h1.363v1.873h0.667v1.768h0.62l-0.053,2.656c-0.002,0.535,0.426,0.969,0.959,0.974
		c0.001,0,0.002,0,0.006,0c0.529,0,0.963-0.429,0.965-0.961l0.051-2.669h0.636v-1.769h0.667v-1.872h1.129
		c2.176,0,3.95-1.718,3.95-3.827v-8.721c0-0.515,0.071-0.887,0.145-1.136h0.11c0.455,0,0.822-0.343,0.822-0.768
		C29.634,28.04,29.263,27.697,28.812,27.697z M25.7,16.065v11.632h-4.755v-14.25h2.136C24.524,13.447,25.7,14.623,25.7,16.065z
		 M25.7,29.229v6.915c0,1.444-1.176,2.618-2.619,2.618h-1.963l0.012-9.533H25.7z M16.726,24.919c-0.069,0-0.134-0.021-0.189-0.049
		v-0.724c0.056-0.027,0.12-0.049,0.189-0.049c0.227,0,0.41,0.185,0.41,0.412C17.136,24.733,16.952,24.919,16.726,24.919z
		 M17.136,25.692c0,0.225-0.184,0.409-0.41,0.409c-0.069,0-0.134-0.018-0.189-0.049v-0.722c0.056-0.031,0.12-0.047,0.189-0.047
		C16.952,25.281,17.136,25.465,17.136,25.692z M16.726,23.737c-0.069,0-0.134-0.019-0.189-0.047v-0.724
		c0.056-0.031,0.12-0.048,0.189-0.048c0.227,0,0.41,0.184,0.41,0.411C17.136,23.554,16.952,23.737,16.726,23.737z M16.726,22.553
		c-0.069,0-0.134-0.016-0.189-0.045v-0.725c0.056-0.029,0.12-0.049,0.189-0.049c0.227,0,0.41,0.182,0.41,0.41
		C17.136,22.375,16.952,22.553,16.726,22.553z M16.726,21.375c-0.069,0-0.134-0.02-0.189-0.051v-0.722
		c0.056-0.031,0.12-0.048,0.189-0.048c0.227,0,0.41,0.183,0.41,0.409C17.136,21.19,16.952,21.375,16.726,21.375z M16.726,20.191
		c-0.069,0-0.134-0.019-0.189-0.048v-0.721c0.056-0.032,0.12-0.05,0.189-0.05c0.227,0,0.41,0.183,0.41,0.408
		C17.136,20.009,16.952,20.191,16.726,20.191z M16.726,19.009c-0.069,0-0.134-0.019-0.189-0.049v-0.723
		c0.056-0.029,0.12-0.05,0.189-0.05c0.227,0,0.41,0.185,0.41,0.412C17.136,18.829,16.952,19.009,16.726,19.009z M16.726,17.827
		c-0.069,0-0.134-0.018-0.189-0.049v-0.723c0.056-0.028,0.12-0.047,0.189-0.047c0.227,0,0.41,0.183,0.41,0.411
		C17.136,17.644,16.952,17.827,16.726,17.827z M16.726,16.647c-0.069,0-0.134-0.019-0.189-0.049v-0.533
		c0-0.066,0.001-0.129,0.008-0.194c0.055-0.027,0.116-0.044,0.182-0.044c0.228,0,0.41,0.185,0.41,0.409S16.952,16.647,16.726,16.647
		z M16.536,26.511c0.056-0.031,0.12-0.046,0.189-0.046c0.227,0,0.41,0.182,0.41,0.408s-0.184,0.41-0.41,0.41
		c-0.069,0-0.134-0.018-0.189-0.049V26.511z M17.497,26.874c0-0.228,0.186-0.411,0.409-0.411c0.228,0,0.412,0.184,0.412,0.411
		c0,0.227-0.185,0.408-0.412,0.408C17.683,27.282,17.497,27.1,17.497,26.874z M17.906,24.919c-0.228,0-0.409-0.187-0.409-0.409
		c0-0.228,0.182-0.412,0.409-0.412c0.227,0,0.409,0.185,0.409,0.412C18.315,24.733,18.133,24.919,17.906,24.919z M18.315,25.692
		c0,0.225-0.183,0.409-0.409,0.409c-0.228,0-0.409-0.185-0.409-0.409c0-0.227,0.182-0.411,0.409-0.411
		C18.133,25.281,18.315,25.465,18.315,25.692z M17.906,23.737c-0.228,0-0.409-0.183-0.409-0.412c0-0.224,0.182-0.408,0.409-0.408
		c0.227,0,0.409,0.185,0.409,0.408C18.315,23.554,18.133,23.737,17.906,23.737z M17.906,22.553c-0.228,0-0.409-0.18-0.409-0.408
		s0.182-0.41,0.409-0.41c0.227,0,0.409,0.182,0.409,0.41S18.133,22.553,17.906,22.553z M17.906,21.375
		c-0.228,0-0.409-0.186-0.409-0.412s0.182-0.41,0.409-0.41c0.227,0,0.409,0.184,0.409,0.41S18.133,21.375,17.906,21.375z
		 M17.906,20.191c-0.228,0-0.409-0.182-0.409-0.41c0-0.226,0.182-0.408,0.409-0.408c0.227,0,0.409,0.183,0.409,0.408
		C18.315,20.009,18.133,20.191,17.906,20.191z M17.906,19.009c-0.228,0-0.409-0.185-0.409-0.409c0-0.228,0.182-0.412,0.409-0.412
		c0.227,0,0.409,0.185,0.409,0.412C18.315,18.829,18.133,19.009,17.906,19.009z M17.906,17.827c-0.228,0-0.409-0.183-0.409-0.407
		c0-0.229,0.182-0.411,0.409-0.411c0.227,0,0.409,0.183,0.409,0.411C18.315,17.644,18.133,17.827,17.906,17.827z M17.906,16.647
		c-0.228,0-0.409-0.187-0.409-0.411s0.182-0.409,0.409-0.409c0.227,0,0.409,0.185,0.409,0.409S18.133,16.647,17.906,16.647z
		 M17.906,15.466c-0.228,0-0.409-0.186-0.409-0.414c0-0.226,0.182-0.408,0.409-0.408c0.227,0,0.409,0.183,0.409,0.408
		C18.315,15.281,18.133,15.466,17.906,15.466z M18.679,26.874c0-0.228,0.185-0.411,0.41-0.411c0.229,0,0.412,0.184,0.412,0.411
		c0,0.227-0.184,0.408-0.412,0.408C18.863,27.282,18.679,27.1,18.679,26.874z M19.089,14.644c0.229,0,0.412,0.183,0.412,0.408
		c0,0.229-0.184,0.414-0.412,0.414c-0.226,0-0.41-0.186-0.41-0.414C18.679,14.827,18.863,14.644,19.089,14.644z M18.679,13.872
		c0-0.225,0.185-0.408,0.41-0.408c0.229,0,0.412,0.184,0.412,0.408c0,0.229-0.184,0.41-0.412,0.41
		C18.863,14.282,18.679,14.1,18.679,13.872z M19.089,15.827c0.229,0,0.412,0.185,0.412,0.409s-0.184,0.411-0.412,0.411
		c-0.226,0-0.41-0.187-0.41-0.411S18.863,15.827,19.089,15.827z M19.089,17.008c0.229,0,0.412,0.183,0.412,0.411
		c0,0.225-0.184,0.407-0.412,0.407c-0.226,0-0.41-0.183-0.41-0.407C18.679,17.191,18.863,17.008,19.089,17.008z M19.089,18.188
		c0.229,0,0.412,0.185,0.412,0.412c0,0.229-0.184,0.409-0.412,0.409c-0.226,0-0.41-0.181-0.41-0.409
		C18.679,18.375,18.863,18.188,19.089,18.188z M19.089,19.373c0.229,0,0.412,0.183,0.412,0.408c0,0.229-0.184,0.41-0.412,0.41
		c-0.226,0-0.41-0.182-0.41-0.41C18.679,19.555,18.863,19.373,19.089,19.373z M19.089,20.555c0.229,0,0.412,0.183,0.412,0.409
		c0,0.226-0.184,0.411-0.412,0.411c-0.226,0-0.41-0.186-0.41-0.411C18.679,20.738,18.863,20.555,19.089,20.555z M19.089,21.735
		c0.229,0,0.412,0.182,0.412,0.41c0,0.229-0.184,0.411-0.412,0.411c-0.226,0-0.41-0.182-0.41-0.411
		C18.679,21.917,18.863,21.735,19.089,21.735z M19.089,22.917c0.229,0,0.412,0.185,0.412,0.408c0,0.229-0.184,0.412-0.412,0.412
		c-0.226,0-0.41-0.183-0.41-0.412C18.679,23.101,18.863,22.917,19.089,22.917z M19.089,24.098c0.229,0,0.412,0.185,0.412,0.412
		s-0.184,0.409-0.412,0.409c-0.226,0-0.41-0.182-0.41-0.409S18.863,24.098,19.089,24.098z M19.089,25.281
		c0.229,0,0.412,0.185,0.412,0.411c0,0.225-0.184,0.409-0.412,0.409c-0.226,0-0.41-0.185-0.41-0.409
		C18.679,25.465,18.863,25.281,19.089,25.281z M19.86,26.874c0-0.228,0.183-0.411,0.41-0.411c0.229,0,0.41,0.184,0.41,0.411
		c0,0.227-0.182,0.408-0.41,0.408C20.043,27.282,19.86,27.1,19.86,26.874z M20.271,15.827c0.229,0,0.41,0.185,0.41,0.409
		s-0.182,0.411-0.41,0.411c-0.228,0-0.41-0.187-0.41-0.411S20.043,15.827,20.271,15.827z M19.86,15.052
		c0-0.226,0.183-0.408,0.41-0.408c0.229,0,0.41,0.183,0.41,0.408c0,0.229-0.182,0.414-0.41,0.414
		C20.043,15.466,19.86,15.281,19.86,15.052z M20.271,17.008c0.229,0,0.41,0.183,0.41,0.411c0,0.225-0.182,0.407-0.41,0.407
		c-0.228,0-0.41-0.183-0.41-0.407C19.86,17.191,20.043,17.008,20.271,17.008z M20.271,18.188c0.229,0,0.41,0.185,0.41,0.412
		c0,0.229-0.182,0.409-0.41,0.409c-0.228,0-0.41-0.181-0.41-0.409C19.86,18.375,20.043,18.188,20.271,18.188z M20.271,19.373
		c0.229,0,0.41,0.183,0.41,0.408c0,0.229-0.182,0.41-0.41,0.41c-0.228,0-0.41-0.182-0.41-0.41
		C19.86,19.555,20.043,19.373,20.271,19.373z M20.271,20.555c0.229,0,0.41,0.183,0.41,0.409c0,0.226-0.182,0.411-0.41,0.411
		c-0.228,0-0.41-0.186-0.41-0.411C19.86,20.738,20.043,20.555,20.271,20.555z M20.271,21.735c0.229,0,0.41,0.182,0.41,0.41
		c0,0.229-0.182,0.411-0.41,0.411c-0.228,0-0.41-0.182-0.41-0.411C19.86,21.917,20.043,21.735,20.271,21.735z M20.271,22.917
		c0.229,0,0.41,0.185,0.41,0.408c0,0.229-0.182,0.412-0.41,0.412c-0.228,0-0.41-0.183-0.41-0.412
		C19.86,23.101,20.043,22.917,20.271,22.917z M20.271,24.098c0.229,0,0.41,0.185,0.41,0.412s-0.182,0.409-0.41,0.409
		c-0.228,0-0.41-0.182-0.41-0.409S20.043,24.098,20.271,24.098z M20.271,25.281c0.229,0,0.41,0.185,0.41,0.411
		c0,0.225-0.182,0.409-0.41,0.409c-0.228,0-0.41-0.185-0.41-0.409C19.86,25.465,20.043,25.281,20.271,25.281z M20.271,14.282
		c-0.228,0-0.41-0.184-0.41-0.41c0-0.226,0.183-0.411,0.41-0.411c0.229,0,0.41,0.186,0.41,0.411
		C20.681,14.098,20.499,14.282,20.271,14.282z M18.315,13.872c0,0.229-0.183,0.41-0.409,0.41c-0.173,0-0.323-0.107-0.383-0.266
		c0.21-0.166,0.448-0.301,0.702-0.398C18.28,13.689,18.315,13.774,18.315,13.872z M17.136,15.052c0,0.229-0.184,0.414-0.41,0.414
		c-0.042,0-0.078-0.01-0.116-0.021c0.065-0.265,0.171-0.519,0.313-0.747C17.05,14.767,17.136,14.901,17.136,15.052z M16.536,27.697
		v-0.003c0.056-0.03,0.12-0.049,0.189-0.049c0.07,0,0.136,0.019,0.195,0.052H16.536z M17.712,27.697
		c0.059-0.033,0.125-0.052,0.194-0.052c0.073,0,0.138,0.019,0.196,0.052H17.712z M18.892,27.697
		c0.061-0.033,0.125-0.052,0.197-0.052c0.07,0,0.137,0.019,0.197,0.052H18.892z M20.075,27.697c0.059-0.033,0.125-0.052,0.195-0.052
		c0.071,0,0.138,0.019,0.195,0.052H20.075z M15.585,33.361h5.526v0.964h-5.526V33.361z M15.585,35.53h5.526v0.966h-5.526V35.53z
		 M21.819,49.182c0,0.084-0.064,0.145-0.143,0.145c-0.08,0-0.145-0.061-0.145-0.145v-2.629h0.287V49.182L21.819,49.182z
		 M22.397,45.875h-1.012v-0.723h1.012V45.875z M22.807,44.188h-1.515v-1.013h1.515V44.188z M27.588,30.365v8.724
		c0,1.576-1.337,2.859-2.983,2.859h-7.012c-1.646,0-2.984-1.283-2.984-2.859v-8.724c0-0.444-0.058-0.826-0.132-1.136h0.61v6.915
		c0,2.241,1.824,4.065,4.064,4.065h3.93c2.241,0,4.064-1.824,4.064-4.065v-6.915h0.561C27.636,29.53,27.588,29.904,27.588,30.365z"
		/>
</g>
</svg>
