<?xml version="1.0" encoding="utf-8"?>
<!-- Generator: Adobe Illustrator 15.1.0, SVG Export Plug-In . SVG Version: 6.00 Build 0)  -->
<!DOCTYPE svg PUBLIC "-//W3C//DTD SVG 1.1//EN" "http://www.w3.org/Graphics/SVG/1.1/DTD/svg11.dtd">
<svg version="1.1" id="Calque_1" xmlns="http://www.w3.org/2000/svg" xmlns:xlink="http://www.w3.org/1999/xlink" x="0px" y="0px"
	 width="35.952px" height="25.455px" viewBox="0 0 35.952 25.455" enable-background="new 0 0 35.952 25.455" xml:space="preserve">
<path fill="#FFFFFF" d="M9.044,16.587c0.843,0.604,1.677,1.294,2.463,2.085c0.044-0.164,0.098-0.354,0.148-0.557
	c0.209-0.828,0.442-1.912,0.531-2.912c0.008-0.098,0.014-0.199,0.013-0.302c0.005-1.067-0.445-2.628-0.854-3.801
	C10.591,13.946,9.547,15.799,9.044,16.587z M35.952,1.14c0-0.855-0.099-1.142-1.053-1.14H1.041C0.093,0,0,0.289,0,1.144
	c0,0.854,0,12.345,0,13.391c-0.002,1.045,3.275,0.334,8.216,4.366c4.938,4.036,4.463,5.795,4.56,6.129
	c0.096,0.331,0.378,0.426,0.998,0.426l8.404-0.003c0.616,0,0.9-0.094,0.996-0.427c0.096-0.33-0.38-2.089,4.561-6.126
	c4.937-4.037,8.214-3.325,8.218-4.37C35.95,13.486,35.952,1.995,35.952,1.14z M35.229,14.039L35.229,14.039
	c-0.002,0.002-0.148,0.033-0.426,0.114c-2.008,0.544-10.227,3.31-12.852,10.61l-1.16-0.424c0.687-1.886,1.699-3.474,2.868-4.821
	c-0.206-0.692-0.722-2.51-0.882-4.229c-0.01-0.13-0.017-0.258-0.016-0.389c0.012-1.938,1.081-4.638,1.448-5.532
	c-0.528-2.624-0.682-4.219-0.719-5.064L12.454,4.307c-0.039,0.846-0.189,2.439-0.716,5.063c0.369,0.895,1.433,3.597,1.448,5.532
	c0,0.131-0.005,0.263-0.017,0.391c-0.157,1.717-0.672,3.536-0.88,4.227c1.171,1.347,2.182,2.938,2.867,4.821L14,24.762
	C11.373,17.459,3.153,14.697,1.148,14.154c-0.279-0.076-0.427-0.11-0.432-0.111l0,0l0,0l0,0l0.271-1.201
	c0.037,0.009,2.724,0.611,5.834,2.338c0.464,0.258,0.934,0.544,1.408,0.853c0.006-0.014,0.008-0.019,0.014-0.029
	c0.181-0.284,0.433-0.718,0.715-1.287c0.565-1.14,1.253-2.848,1.717-5.08c0.014-0.057,0.021-0.113,0.035-0.166
	c-0.001-0.006-0.002-0.008-0.002-0.008l0.005-0.006c0.554-2.701,0.713-4.322,0.753-5.149H1.092V1.443l33.765-0.004l-0.003,2.864
	L24.478,4.305c0.043,0.829,0.204,2.45,0.759,5.151l0.006,0.001c0,0-0.003,0.007-0.003,0.012c0.012,0.053,0.019,0.105,0.032,0.164
	c0.466,2.235,1.153,3.94,1.72,5.083c0.28,0.569,0.531,1.001,0.716,1.287c0.004,0.009,0.006,0.016,0.016,0.022
	c0.469-0.307,0.937-0.59,1.404-0.847c3.108-1.729,5.797-2.331,5.831-2.342L35.229,14.039L35.229,14.039L35.229,14.039z M23.746,14.9
	c0.003,0.104,0.006,0.205,0.016,0.301c0.091,1.002,0.323,2.086,0.532,2.912c0.053,0.203,0.104,0.389,0.146,0.559
	c0.789-0.791,1.624-1.484,2.467-2.084c-0.502-0.791-1.553-2.647-2.305-5.487C24.193,12.273,23.74,13.832,23.746,14.9z"/>
</svg>
