<?xml version="1.0" encoding="utf-8"?>
<!-- Generator: Adobe Illustrator 15.1.0, SVG Export Plug-In . SVG Version: 6.00 Build 0)  -->
<!DOCTYPE svg PUBLIC "-//W3C//DTD SVG 1.1//EN" "http://www.w3.org/Graphics/SVG/1.1/DTD/svg11.dtd">
<svg version="1.1" id="Calque_1" xmlns="http://www.w3.org/2000/svg" xmlns:xlink="http://www.w3.org/1999/xlink" x="0px" y="0px"
	 width="1024px" height="768px" viewBox="0 0 1024 768" enable-background="new 0 0 1024 768" xml:space="preserve">
<polygon opacity="0.5" fill="#FC441A" points="549.674,384.945 467.244,360.366 516.124,339.767 616.176,368.987 "/>
<polygon opacity="0.5" fill="#FC441A" points="540.725,425.712 452.984,400.82 474.874,379.558 579.605,408.115 "/>
<polygon fill="#FC441A" points="467.244,360 643.652,360 634.864,343.666 648.957,328 478.518,328 "/>
<polygon fill="#FC441A" points="605.518,400 452.984,400 463.928,368 616.84,368 "/>
<polygon fill="#FC441A" points="568.38,440 420.482,440 434.747,424.041 427.114,408 579.605,408 "/>
<rect x="444.43" y="416.494" fill="none" width="120.544" height="18.438"/>
<text transform="matrix(1 0 0 1 444.4297 431.8945)" fill="#FFFFFF" font-family="'BebasNeue'" font-size="22">sea, sun &amp; web5</text>
<rect x="466.977" y="377.914" fill="none" width="140.885" height="18.438"/>
<text transform="matrix(1 0 0 1 466.9771 393.3145)" fill="#FFFFFF" font-family="'BebasNeue'" font-size="22">15 &amp; 16 june 2013 </text>
<rect x="488.799" y="337.064" fill="none" width="148.001" height="18.439"/>
<text transform="matrix(1 0 0 1 488.7988 352.4648)" fill="#FFFFFF" font-family="'BebasNeue'" font-size="22">Web - 5 conference</text>
<g id="Logo_1_" inkscape:label="Calque 1" inkscape:groupmode="layer">
	<path id="path6-0_8_" sodipodi:nodetypes="cccc" inkscape:connector-curvature="0" fill="#CCCCCC" d="M408.715,327.952h31.973
		l-5.982,67.14l-27.002,7.59"/>
	<path id="path6_22_" inkscape:connector-curvature="0" fill="#FC441A" d="M379.742,394.194l-5.984-67.14h65.826l-5.984,67.14
		l-27.002,7.589"/>
	<path id="path8_11_" inkscape:connector-curvature="0" fill="#FC5528" d="M406.743,395.945l21.748-5.985l5.108-57.505h-26.856"/>
	<g id="g4142_8_" transform="matrix(1.0122463,0,0,0.92362317,-465.33648,403.23086)">
		<g id="g3907_8_" transform="matrix(0.96158604,-0.35269472,0.19890961,1.0604357,-10.775146,296.1239)">
			<path id="path3831_8_" fill="#FFFFFF" d="M903.148,0.853c-0.001,3.133-2.408,5.674-5.379,5.676c-2.971,0-5.379-2.542-5.378-5.676
				c0-3.133,2.408-5.675,5.378-5.673C900.74-4.822,903.148-2.281,903.148,0.853z"/>
			<path id="path3831-0_8_" fill="#FFFFFF" d="M913.115-3.144c0.001,3.16-2.45,5.724-5.476,5.723c-3.026,0-5.478-2.563-5.478-5.724
				c-0.001-3.162,2.452-5.722,5.478-5.725C910.663-8.869,913.116-6.306,913.115-3.144z"/>
			<path id="path3831-00_8_" fill="#FFFFFF" d="M903.642-9.362c-0.001,2.673-2.298,4.836-5.132,4.837
				c-2.834,0-5.133-2.164-5.133-4.837c0.002-2.671,2.297-4.834,5.133-4.835C901.343-14.198,903.641-12.032,903.642-9.362z"/>
			<path id="path3831-9_8_" fill="#FFFFFF" d="M916.077-14.691c-0.002,3.162-2.828,5.725-6.318,5.724
				c-3.487,0.001-6.315-2.562-6.315-5.723c0-3.162,2.827-5.725,6.316-5.725C913.247-20.415,916.077-17.853,916.077-14.691z"/>
			<path id="path3831-8_8_" fill="#FFFFFF" d="M923.577-8.424c0,3.024-2.563,5.478-5.723,5.479
				c-3.162-0.001-5.725-2.453-5.723-5.478c-0.002-3.026,2.562-5.477,5.724-5.476C921.013-13.901,923.577-11.448,923.577-8.424z"/>
			<path id="path3831-09_8_" fill="#FFFFFF" d="M905.023-19.723c-0.001,2.997-2.672,5.426-5.972,5.428
				c-3.297-0.001-5.97-2.432-5.97-5.429c0-2.998,2.672-5.429,5.973-5.429C902.349-25.151,905.022-22.721,905.023-19.723z"/>
			<path id="path3831-6_8_" fill="#FFFFFF" d="M917.854-26.139c-0.001,3.434-2.784,6.218-6.219,6.216
				c-3.434,0.002-6.218-2.782-6.218-6.216c0.001-3.434,2.782-6.22,6.219-6.217C915.07-32.356,917.853-29.573,917.854-26.139z"/>
			<path id="path3831-7_8_" fill="#FFFFFF" d="M926.537-19.971c0.001,3.242-2.628,5.871-5.871,5.872
				c-3.243,0-5.873-2.63-5.873-5.872c0.001-3.244,2.628-5.872,5.872-5.872C923.908-25.843,926.537-23.213,926.537-19.971z"/>
			<path id="path3831-2_8_" fill="#FFFFFF" d="M931.672-12.273c-0.001,2.479-2.012,4.49-4.491,4.491
				c-2.482-0.001-4.493-2.011-4.492-4.491c-0.002-2.48,2.009-4.49,4.49-4.491C929.661-16.764,931.669-14.753,931.672-12.273z"/>
			<path id="path3831-1_8_" fill="#FFFFFF" d="M907.589-30.086c0,2.508-2.517,4.54-5.626,4.54c-3.106-0.001-5.626-2.032-5.626-4.539
				c0-2.508,2.52-4.541,5.626-4.541C905.069-34.627,907.589-32.595,907.589-30.086z"/>
		</g>
		<path id="path3919_8_" inkscape:connector-curvature="0" fill="#FFFFFF" d="M858.333-75.323c0,0-1.397,0.381-2.158,1.269
			c-0.759,0.888-0.254,2.539-0.254,2.539s5.075,4.061,11.296,6.09c6.216,2.031,13.197,2.667,13.197,2.667l1.902-3.807
			c0,0-7.613,0.252-12.436-2.031C865.06-70.881,858.333-75.323,858.333-75.323z"/>
		<path id="path3919-3_8_" inkscape:connector-curvature="0" fill="#FFFFFF" d="M869.469-67.864c0,0-0.536-0.804-1.26-1.099
			c-0.724-0.297-1.662,0.375-1.662,0.375s-1.505,4.078-1.479,8.448c0.026,4.373,1.099,8.934,1.099,8.934l2.816,0.404
			c0,0-1.77-4.776-1.34-8.317C868.074-62.659,869.469-67.864,869.469-67.864z"/>
	</g>
</g>
</svg>
