<?xml version="1.0" encoding="utf-8"?>
<!-- Generator: Adobe Illustrator 15.1.0, SVG Export Plug-In . SVG Version: 6.00 Build 0)  -->
<!DOCTYPE svg PUBLIC "-//W3C//DTD SVG 1.1//EN" "http://www.w3.org/Graphics/SVG/1.1/DTD/svg11.dtd">
<svg version="1.1" id="Calque_1" xmlns="http://www.w3.org/2000/svg" xmlns:xlink="http://www.w3.org/1999/xlink" x="0px" y="0px"
	 width="77.586px" height="44.827px" viewBox="0 0 77.586 44.827" enable-background="new 0 0 77.586 44.827" xml:space="preserve">
<path d="M69.441,17.189c-7.244-1.735-14.722-2.033-21.769-0.704c-2.436,0.456-4.828,1.376-7.2,1.582
	c-3.818,0.327-6.33-0.947-9.478-1.582c-7.049-1.419-15.308-1.398-22.12,0.353c0,1.342,0.104,2.586,0.353,3.686
	c0.117,0.465,0.643,0.513,0.878,0.699c1.335,1.093,1.432,4.379,1.93,6.322c0.762,3.016,1.938,5.52,4.233,6.897
	c4.233,2.524,14.976,1.237,17.929-4.904c0.305-0.858,2.186-6.122,3.467-7.61c0.49-0.574,2.566-0.498,3.07-0.035
	c1.716,2.713,1.992,5.798,3.777,8.108c3.493,4.523,7.969,5.803,11.586,5.796c2.289-0.006,5.243-0.366,6.847-1.404
	c3.632-2.352,2.94-8.23,4.739-12.465c0.201-0.561,1.245-0.284,1.411-0.878C69.33,19.922,69.571,18.124,69.441,17.189z
	 M11.975,19.333c-0.784,0-1.42-0.254-1.42-0.567s0.636-0.568,1.42-0.568c0.783,0,1.418,0.255,1.418,0.568
	S12.758,19.333,11.975,19.333z M62.066,33.161c-1.667,1.094-5.208,1.281-7.899,1.059c-2.676-0.222-4.239-1.411-5.804-2.401
	l-2.095-2.52c-0.755-1.168-1.176-2.433-1.578-4.037c-0.476-1.883-1.079-4.637,0.346-5.971c1.142-1.064,5.133-1.916,7.727-2.102
	c5.216-0.389,11.386,0.192,12.113,4.211C65.566,25.2,64.273,31.73,62.066,33.161z M32.06,29.363c-1.022,1.702-4.89,4.387-7.74,4.677
	c-3.154,0.325-6.974-0.371-8.365-2.079c-1.379-0.85-2.751-6.291-2.695-8.802c0.117-5.104,2.981-5.204,8.253-5.84
	c3.984-0.479,11.213,0.493,12.292,2.499C35.297,22.605,32.06,29.363,32.06,29.363z M66.619,20.024c-0.783,0-1.418-0.254-1.418-0.567
	s0.635-0.567,1.418-0.567c0.785,0,1.419,0.254,1.419,0.567S67.404,20.024,66.619,20.024z M32.06,29.363
	c-1.022,1.702-4.89,4.387-7.74,4.677c-3.154,0.325-6.974-0.371-8.365-2.079c-0.582-0.715-2.298-7.006-0.464-10.896
	c1.508-3.196,5.801-3.72,6.021-3.747c3.984-0.478,11.213,0.493,12.292,2.5C35.297,22.605,32.06,29.363,32.06,29.363z M62.066,33.161
	c-1.667,1.094-5.208,1.281-7.899,1.059c-2.676-0.222-4.239-1.411-5.804-2.401l-2.095-2.52c-0.755-1.168-1.176-2.433-1.578-4.037
	c-0.476-1.883-1.079-4.637,0.346-5.971c1.142-1.064,5.133-1.916,7.727-2.102c5.216-0.389,11.386,0.192,12.113,4.211
	C65.566,25.2,64.273,31.73,62.066,33.161z"/>
</svg>
