<?xml version="1.0" encoding="utf-8"?>
<!-- Generator: Adobe Illustrator 15.1.0, SVG Export Plug-In . SVG Version: 6.00 Build 0)  -->
<!DOCTYPE svg PUBLIC "-//W3C//DTD SVG 1.1//EN" "http://www.w3.org/Graphics/SVG/1.1/DTD/svg11.dtd">
<svg version="1.1" id="Calque_1" xmlns="http://www.w3.org/2000/svg" xmlns:xlink="http://www.w3.org/1999/xlink" x="0px" y="0px"
	 width="49.327px" height="16.545px" viewBox="0 0 49.327 16.545" enable-background="new 0 0 49.327 16.545" xml:space="preserve">
<path id="IcoSpeaker" fill="#FFFFFF" d="M49.297,1.399c-5.895-1.411-11.98-1.652-17.715-0.572c-1.986,0.37-3.934,1.12-5.863,1.287
	c-3.109,0.266-5.151-0.77-7.715-1.287C12.27-0.326,5.544-0.313,0,1.114c0,1.092,0.083,2.105,0.287,3
	c0.096,0.381,0.525,0.417,0.715,0.568c1.084,0.89,1.166,3.565,1.57,5.147c0.62,2.454,1.576,4.492,3.445,5.613
	c3.445,2.056,12.19,1.007,14.596-3.991c0.245-0.7,1.776-4.986,2.82-6.197c0.398-0.464,2.087-0.403,2.499-0.025
	c1.396,2.207,1.622,4.717,3.073,6.597c2.844,3.686,6.486,4.726,9.431,4.719c1.864-0.004,4.268-0.297,5.573-1.142
	c2.955-1.916,2.391-6.699,3.857-10.148c0.163-0.452,1.014-0.229,1.148-0.713C49.207,3.624,49.404,2.16,49.297,1.399z M2.522,3.145
	c-0.638,0-1.155-0.207-1.155-0.46c0-0.257,0.518-0.464,1.155-0.464s1.155,0.207,1.155,0.464C3.678,2.938,3.16,3.145,2.522,3.145z
	 M43.295,14.399c-1.355,0.892-4.238,1.044-6.429,0.863c-2.179-0.182-3.451-1.148-4.726-1.954l-1.705-2.052
	c-0.612-0.95-0.957-1.979-1.285-3.285c-0.387-1.532-0.876-3.775,0.283-4.859c0.929-0.868,4.178-1.559,6.291-1.713
	c4.244-0.316,9.265,0.158,9.855,3.428C46.142,7.922,45.091,13.238,43.295,14.399z M18.871,11.31
	c-0.832,1.386-3.98,3.568-6.301,3.805c-2.566,0.268-5.676-0.301-6.808-1.691c-1.123-0.69-2.24-5.121-2.196-7.162
	c0.098-4.158,2.428-4.236,6.719-4.754c3.244-0.389,9.125,0.402,10.005,2.034C21.505,5.808,18.871,11.31,18.871,11.31z M47.001,3.707
	c-0.639,0-1.155-0.206-1.155-0.461s0.517-0.463,1.155-0.463c0.638,0,1.155,0.208,1.155,0.463S47.639,3.707,47.001,3.707z
	 M18.871,11.31c-0.832,1.386-3.98,3.568-6.301,3.805c-2.566,0.268-5.676-0.301-6.808-1.691c-0.474-0.582-1.872-5.7-0.38-8.868
	c1.229-2.601,4.724-3.027,4.902-3.048c3.244-0.389,9.125,0.402,10.005,2.034C21.505,5.808,18.871,11.31,18.871,11.31z
	 M43.295,14.399c-1.355,0.892-4.238,1.044-6.429,0.863c-2.179-0.182-3.451-1.148-4.726-1.954l-1.705-2.052
	c-0.612-0.95-0.957-1.979-1.285-3.285c-0.387-1.532-0.876-3.775,0.283-4.859c0.929-0.868,4.178-1.559,6.291-1.713
	c4.244-0.316,9.265,0.158,9.855,3.428C46.142,7.922,45.091,13.238,43.295,14.399z"/>
</svg>
